<svg width="9" height="17" viewBox="0 0 9 17" fill="none" xmlns="http://www.w3.org/2000/svg">
<path fill-rule="evenodd" clip-rule="evenodd" d="M5.23528 0.558831C5.47893 0.68878 5.57111 0.991646 5.44116 1.2353L1.56665 8.50001L5.44116 15.7647C5.57111 16.0084 5.47893 16.3112 5.23528 16.4412C4.99162 16.5711 4.68876 16.479 4.55881 16.2353L0.433319 8.50001C2.04442 5.47919 2.94771 3.78553 4.55881 0.764713C4.68876 0.521058 4.99162 0.428881 5.23528 0.558831Z" fill="black"/>
<path fill-rule="evenodd" clip-rule="evenodd" d="M7.80196 0.558831C8.04562 0.68878 8.13779 0.991646 8.00784 1.2353L4.13333 8.50001L8.00784 15.7647C8.13779 16.0084 8.04562 16.3112 7.80196 16.4412C7.55831 16.5711 7.25544 16.479 7.12549 16.2353L3 8.50001C4.6111 5.47919 5.51439 3.78553 7.12549 0.764713C7.25544 0.521058 7.55831 0.428881 7.80196 0.558831Z" fill="black"/>
</svg>
