<svg width="26" height="26" viewBox="0 0 26 26" fill="none" xmlns="http://www.w3.org/2000/svg">
<g clip-path="url(#clip0_53_4)">
<path d="M13 25C19.6274 25 25 19.6274 25 13C25 6.37258 19.6274 1 13 1C6.37258 1 1 6.37258 1 13C1 19.6274 6.37258 25 13 25Z" fill="#FBFF41"/>
<path d="M1.5 9.3871L3.5 6L5 6.96774L7 9.3871L8 10.8387V13.7419L7.5 17.129C7 18.0968 5.9 20.0323 5.5 20.0323C5.1 20.0323 4.33333 20.6774 4 21L2.5 19.0645L1.5 16.6452L1 12.2903L1.5 9.3871Z" fill="#5652FF"/>
<path d="M3.5 5.5C9.5 9 9.5 17 4.5 21" stroke="black"/>
<path d="M13 25C19.6274 25 25 19.6274 25 13C25 6.37258 19.6274 1 13 1C6.37258 1 1 6.37258 1 13C1 19.6274 6.37258 25 13 25Z" stroke="#1C222B"/>
</g>
<defs>
<clipPath id="clip0_53_4">
<rect width="26" height="26" fill="white"/>
</clipPath>
</defs>
</svg>
