<svg width="26" height="26" viewBox="0 0 26 26" fill="none" xmlns="http://www.w3.org/2000/svg">
<g clip-path="url(#clip0_53_37)">
<path d="M13 25C19.6274 25 25 19.6274 25 13C25 6.37258 19.6274 1 13 1C6.37258 1 1 6.37258 1 13C1 19.6274 6.37258 25 13 25Z" fill="#5652FF"/>
<path d="M1 12.129L1.64286 8.83871L4 5.5L6 3.5L7 4.5L8.5 6.5L9.35714 8.83871L10 10.4839V13.7742L9.35714 17.6129C8.71429 18.7097 8.01429 21.5 7.5 21.5C6.98571 21.5 6.92857 22.6344 6.5 23L2.92857 19.8065L1.64286 17.0645L1 12.129Z" fill="#FBFF41"/>
<path d="M13 25C19.6274 25 25 19.6274 25 13C25 6.37258 19.6274 1 13 1C6.37258 1 1 6.37258 1 13C1 19.6274 6.37258 25 13 25Z" stroke="#1C222B"/>
<path d="M6 3.5C11.5 8 12 17.5 6 23" stroke="black"/>
</g>
<defs>
<clipPath id="clip0_53_37">
<rect width="26" height="26" fill="white"/>
</clipPath>
</defs>
</svg>
